<svg width="15" height="10" viewBox="0 0 15 10" fill="none" xmlns="http://www.w3.org/2000/svg">
<path d="M4.125 4.83998C5.15883 4.83998 6 4.16143 6 3.32748C6 2.49353 5.15883 1.81499 4.125 1.81499C3.09117 1.81499 2.25 2.49353 2.25 3.32748C2.25 4.16143 3.09117 4.83998 4.125 4.83998ZM12.375 2.41999H7.125C6.91781 2.41999 6.75 2.55535 6.75 2.72249V5.44497H1.5V1.51249C1.5 1.34536 1.33219 1.20999 1.125 1.20999H0.375C0.167812 1.20999 0 1.34536 0 1.51249V8.16746C0 8.33459 0.167812 8.46996 0.375 8.46996H1.125C1.33219 8.46996 1.5 8.33459 1.5 8.16746V7.25997H13.5V8.16746C13.5 8.33459 13.6678 8.46996 13.875 8.46996H14.625C14.8322 8.46996 15 8.33459 15 8.16746V4.53748C15 3.36794 13.8248 2.41999 12.375 2.41999Z" fill="#888888"/>
</svg>
