<svg width="11" height="11" viewBox="0 0 11 11" fill="none" xmlns="http://www.w3.org/2000/svg">
<path fill-rule="evenodd" clip-rule="evenodd" d="M3.30756 7.66379C3.1693 7.74849 3.06543 7.87932 3.01428 8.03319C2.96314 8.18705 2.96803 8.35404 3.02808 8.50465C3.08812 8.65526 3.19947 8.7798 3.34245 8.85627C3.48542 8.93274 3.65082 8.95622 3.80943 8.92255C3.96804 8.88889 4.10964 8.80025 4.20923 8.6723C4.30882 8.54435 4.35998 8.38532 4.35367 8.2233C4.34736 8.06128 4.284 7.90671 4.17477 7.78688C4.06554 7.66706 3.91747 7.58969 3.75673 7.56846C3.74814 7.53771 3.74027 7.50676 3.73313 7.47564C3.70179 7.33406 3.67731 7.19105 3.65979 7.0471C3.64086 6.90161 3.63015 6.75517 3.62771 6.60848C3.62723 6.56819 3.62838 6.5279 3.63115 6.48771C3.71915 6.4625 3.8076 6.43958 3.89583 6.41964C3.9969 6.39673 4.05694 6.51589 4.10529 6.6126L4.125 6.65133H6.81748C6.86996 6.55187 6.9889 6.39329 7.10417 6.41964C7.227 6.4476 7.35052 6.48083 7.4729 6.51887L7.47221 6.5191C7.47175 6.51864 7.47175 6.51864 7.47221 6.51956C7.47312 6.52277 7.47817 6.53789 7.48321 6.56998C7.48894 6.6071 7.49283 6.65523 7.49467 6.71321C7.49787 6.82871 7.49123 6.96919 7.47771 7.11081C7.46396 7.25221 7.44356 7.38902 7.42065 7.49696C7.4156 7.52102 7.41056 7.54279 7.40552 7.5625H7.10417C7.06162 7.56252 7.01992 7.57439 6.98373 7.59677C6.94755 7.61915 6.91831 7.65117 6.89929 7.68923L6.67013 8.14756C6.65418 8.17936 6.64586 8.21443 6.64583 8.25V8.70833C6.64583 8.76911 6.66998 8.8274 6.71295 8.87038C6.75593 8.91335 6.81422 8.9375 6.875 8.9375H7.33333V8.47916H7.10417V8.30408L7.24579 8.02083H7.87921L8.02083 8.30408V8.47916H7.79167V8.9375H8.25C8.31078 8.9375 8.36907 8.91335 8.41205 8.87038C8.45502 8.8274 8.47917 8.76911 8.47917 8.70833V8.25C8.47914 8.21443 8.47082 8.17936 8.45488 8.14756L8.22571 7.68923C8.20669 7.65117 8.17745 7.61915 8.14127 7.59677C8.10508 7.57439 8.06338 7.56252 8.02083 7.5625H7.87508C7.8996 7.44035 7.92 7.29781 7.93375 7.15481C7.94887 7.00035 7.95667 6.84017 7.95277 6.70037L7.95254 6.69396C8.86646 7.0801 9.625 7.71512 9.625 8.38062V9.625H1.375V8.38062C1.375 7.68579 2.20229 7.02396 3.1696 6.64423C3.17213 6.78677 3.18565 6.94787 3.20513 7.10394C3.22621 7.27237 3.25485 7.43989 3.28648 7.57785C3.29335 7.60742 3.30023 7.63606 3.30756 7.66379ZM3.66667 8.4826C3.78996 8.4826 3.89583 8.38177 3.89583 8.25C3.89583 8.11846 3.78996 8.01739 3.66667 8.01739C3.54338 8.01739 3.4375 8.11823 3.4375 8.25C3.4375 8.38154 3.54338 8.4826 3.66667 8.4826Z" fill="#3762A4"/>
<path fill-rule="evenodd" clip-rule="evenodd" d="M5.49998 5.5C5.98621 5.5 6.45253 5.30685 6.79634 4.96303C7.14016 4.61921 7.33331 4.1529 7.33331 3.66667C7.33331 3.18044 7.14016 2.71412 6.79634 2.3703C6.45253 2.02649 5.98621 1.83333 5.49998 1.83333C5.01375 1.83333 4.54743 2.02649 4.20362 2.3703C3.8598 2.71412 3.66665 3.18044 3.66665 3.66667C3.66665 4.1529 3.8598 4.61921 4.20362 4.96303C4.54743 5.30685 5.01375 5.5 5.49998 5.5ZM5.49998 5.95833C6.76567 5.95833 7.79165 4.93235 7.79165 3.66667C7.79165 2.40098 6.76567 1.375 5.49998 1.375C4.23429 1.375 3.20831 2.40098 3.20831 3.66667C3.20831 4.93235 4.23429 5.95833 5.49998 5.95833Z" fill="#3762A4"/>
</svg>
