<svg width="10" height="8" viewBox="0 0 10 8" fill="none" xmlns="http://www.w3.org/2000/svg">
<path d="M9 0H1C0.4485 0 0 0.4485 0 1V7C0 7.5515 0.4485 8 1 8H9C9.5515 8 10 7.5515 10 7V1C10 0.4485 9.5515 0 9 0ZM3.3575 2C3.933 2 4.3575 2.4245 4.3575 3C4.3575 3.5755 3.933 4 3.3575 4C2.782 4 2.3575 3.5755 2.3575 3C2.3575 2.4245 2.7815 2 3.3575 2ZM5.215 6H1.5V5.7675C1.5 5.081 2.338 4.375 3.3575 4.375C4.377 4.375 5.215 5.081 5.215 5.7675V6ZM8.5 5.5H6.5V4.5H8.5V5.5ZM8.5 3.5H6V2.5H8.5V3.5Z" fill="#ED8383"/>
</svg>
