<svg width="8" height="9" viewBox="0 0 8 9" fill="none" xmlns="http://www.w3.org/2000/svg">
<path d="M7.875 8.64844V9H0V8.64844C0 8.53195 0.0944473 8.4375 0.210937 8.4375H0.5625V2.10938C0.5625 1.87638 0.751377 1.6875 0.984375 1.6875H2.53125V0.421875C2.53125 0.188877 2.72013 0 2.95312 0H4.92187C5.15487 0 5.34375 0.188877 5.34375 0.421875V1.6875H6.89062C7.12362 1.6875 7.3125 1.87638 7.3125 2.10938V8.4375H7.66406C7.78055 8.4375 7.875 8.53195 7.875 8.64844ZM5.41406 3.375H4.71094C4.59445 3.375 4.5 3.46945 4.5 3.58594V4.28906C4.5 4.40555 4.59445 4.5 4.71094 4.5H5.41406C5.53055 4.5 5.625 4.40555 5.625 4.28906V3.58594C5.625 3.46945 5.53055 3.375 5.41406 3.375ZM2.46094 4.5H3.16406C3.28055 4.5 3.375 4.40555 3.375 4.28906V3.58594C3.375 3.46945 3.28055 3.375 3.16406 3.375H2.46094C2.34445 3.375 2.25 3.46945 2.25 3.58594V4.28906C2.25 4.40555 2.34445 4.5 2.46094 4.5ZM4.28906 6.75H3.58594C3.46945 6.75 3.375 6.84445 3.375 6.96094V8.4375H4.5V6.96094C4.5 6.84445 4.40555 6.75 4.28906 6.75ZM5.41406 5.0625H4.71094C4.59445 5.0625 4.5 5.15695 4.5 5.27344V5.97656C4.5 6.09305 4.59445 6.1875 4.71094 6.1875H5.41406C5.53055 6.1875 5.625 6.09305 5.625 5.97656V5.27344C5.625 5.15695 5.53055 5.0625 5.41406 5.0625ZM3.375 5.27344C3.375 5.15695 3.28055 5.0625 3.16406 5.0625H2.46094C2.34445 5.0625 2.25 5.15695 2.25 5.27344V5.97656C2.25 6.09305 2.34445 6.1875 2.46094 6.1875H3.16406C3.28055 6.1875 3.375 6.09305 3.375 5.97656V5.27344ZM3.19922 1.6875H3.65625V2.14453C3.65625 2.1725 3.66736 2.19933 3.68714 2.21911C3.70692 2.23889 3.73375 2.25 3.76172 2.25H4.11328C4.14125 2.25 4.16808 2.23889 4.18786 2.21911C4.20764 2.19933 4.21875 2.1725 4.21875 2.14453V1.6875H4.67578C4.70375 1.6875 4.73058 1.67639 4.75036 1.65661C4.77014 1.63683 4.78125 1.61 4.78125 1.58203V1.23047C4.78125 1.2025 4.77014 1.17567 4.75036 1.15589C4.73058 1.13611 4.70375 1.125 4.67578 1.125H4.21875V0.667969C4.21875 0.639997 4.20764 0.61317 4.18786 0.593391C4.16808 0.573612 4.14125 0.5625 4.11328 0.5625H3.76172C3.73375 0.5625 3.70692 0.573612 3.68714 0.593391C3.66736 0.61317 3.65625 0.639997 3.65625 0.667969V1.125H3.19922C3.17125 1.125 3.14442 1.13611 3.12464 1.15589C3.10486 1.17567 3.09375 1.2025 3.09375 1.23047V1.58203C3.09375 1.61 3.10486 1.63683 3.12464 1.65661C3.14442 1.67639 3.17125 1.6875 3.19922 1.6875Z" fill="#ED8383"/>
</svg>
